<svg height="448pt" viewBox="0 0 448 448.42864" width="448pt" xmlns="http://www.w3.org/2000/svg"><path d="m3.96875 290.339844c10.480469 36.640625 30.507812 69.839844 58.03125 96.199218 58.519531 58.523438 133.390625 78.960938 168.328125 46.472657-15.75-17.632813-34.890625-31.910157-56.28125-41.984375-25.847656-12.28125-48.664063-30.121094-66.816406-52.246094-19.171875-21.253906-33.410157-46.476562-41.703125-73.871094-6.507813-21.703125-17.140625-41.945312-31.320313-59.617187-6.527343 2.636719-12.464843 6.539062-17.472656 11.488281-16.078125 16.0625-20.605469 42.191406-12.765625 73.558594zm0 0"/><path d="m244.527344 358.246094c-10.480469-36.640625-30.507813-69.839844-58.03125-96.203125-39.734375-39.734375-87.054688-61.957031-124.273438-61.957031-3.761718.019531-7.519531.285156-11.246094.800781 13.222657 17.75 23.265626 37.664062 29.679688 58.855469 7.632812 25.46875 20.851562 48.914062 38.695312 68.621093 16.828126 20.585938 38.039063 37.15625 62.089844 48.496094 22.203125 10.546875 42.167969 25.273437 58.804688 43.371094 8.800781-15.859375 10.464844-37.25 4.28125-61.984375zm0 0"/><path d="m386.496094 186.539062c27.523437-26.359374 47.550781-59.558593 58.03125-96.199218 4.882812-16.832032 5.011718-34.683594.367187-51.582032-19.136719 14.734376-40.960937 25.605469-64.253906 32-25.242187 6.855469-48.601563 19.347657-68.320313 36.535157-20.570312 16.15625-37.210937 36.765625-48.671874 60.28125-11.71875 23.867187-28.378907 44.96875-48.878907 61.902343.671875.761719 1.246094 1.601563 1.964844 2.320313 34.3125 34.328125 110.472656 14.023437 169.761719-45.257813zm0 0"/><path d="m302.113281 94.972656c21.308594-18.5 46.492188-31.992187 73.703125-39.480468 22.558594-6.171876 43.617188-16.882813 61.886719-31.480469-1.753906-2.59375-3.742187-5.019531-5.941406-7.246094-12.296875-11.464844-28.695313-17.484375-45.488281-16.6953125-37.21875 0-84.53125 22.2226565-124.273438 61.9570315-27.523438 26.363281-47.550781 59.5625-58.03125 96.203125-5.742188 18.914062-5.015625 39.207031 2.070312 57.664062 18.257813-15.394531 33.085938-34.445312 43.527344-55.921875 12.441406-25.320312 30.394532-47.53125 52.546875-65zm0 0"/></svg>